<mxfile host="app.diagrams.net" agent="Mozilla/5.0 (Windows NT 10.0; Win64; x64) AppleWebKit/537.36 (KHTML, like Gecko) Chrome/131.0.0.0 Safari/537.36" version="25.0.3">
  <diagram name="Trang-1" id="bLYCb__JHBvTmUmVlYI3">
    <mxGraphModel dx="1050" dy="653" grid="1" gridSize="10" guides="1" tooltips="1" connect="1" arrows="1" fold="1" page="1" pageScale="1" pageWidth="827" pageHeight="1169" math="0" shadow="0">
      <root>
        <mxCell id="0" />
        <mxCell id="1" parent="0" />
        <mxCell id="aB4UZuVEqjASn_y-79hj-13" style="edgeStyle=orthogonalEdgeStyle;rounded=0;orthogonalLoop=1;jettySize=auto;html=1;" edge="1" parent="1" source="aB4UZuVEqjASn_y-79hj-1" target="aB4UZuVEqjASn_y-79hj-2">
          <mxGeometry relative="1" as="geometry" />
        </mxCell>
        <mxCell id="aB4UZuVEqjASn_y-79hj-1" value="Start" style="strokeWidth=2;html=1;shape=mxgraph.flowchart.start_1;whiteSpace=wrap;" vertex="1" parent="1">
          <mxGeometry x="185" y="10" width="100" height="60" as="geometry" />
        </mxCell>
        <mxCell id="aB4UZuVEqjASn_y-79hj-14" style="edgeStyle=orthogonalEdgeStyle;rounded=0;orthogonalLoop=1;jettySize=auto;html=1;" edge="1" parent="1" source="aB4UZuVEqjASn_y-79hj-2" target="aB4UZuVEqjASn_y-79hj-3">
          <mxGeometry relative="1" as="geometry" />
        </mxCell>
        <mxCell id="aB4UZuVEqjASn_y-79hj-2" value="N" style="shape=parallelogram;html=1;strokeWidth=2;perimeter=parallelogramPerimeter;whiteSpace=wrap;rounded=1;arcSize=12;size=0.23;" vertex="1" parent="1">
          <mxGeometry x="185" y="110" width="100" height="60" as="geometry" />
        </mxCell>
        <mxCell id="aB4UZuVEqjASn_y-79hj-15" style="edgeStyle=orthogonalEdgeStyle;rounded=0;orthogonalLoop=1;jettySize=auto;html=1;" edge="1" parent="1" source="aB4UZuVEqjASn_y-79hj-3" target="aB4UZuVEqjASn_y-79hj-5">
          <mxGeometry relative="1" as="geometry" />
        </mxCell>
        <mxCell id="aB4UZuVEqjASn_y-79hj-3" value="N &amp;lt; 2" style="strokeWidth=2;html=1;shape=mxgraph.flowchart.decision;whiteSpace=wrap;" vertex="1" parent="1">
          <mxGeometry x="172.5" y="200" width="125" height="100" as="geometry" />
        </mxCell>
        <mxCell id="aB4UZuVEqjASn_y-79hj-5" value="i = 2" style="rounded=1;whiteSpace=wrap;html=1;absoluteArcSize=1;arcSize=14;strokeWidth=2;" vertex="1" parent="1">
          <mxGeometry x="170" y="340" width="130" height="50" as="geometry" />
        </mxCell>
        <mxCell id="aB4UZuVEqjASn_y-79hj-6" value="i &amp;lt;= sqrt(N)" style="strokeWidth=2;html=1;shape=mxgraph.flowchart.decision;whiteSpace=wrap;" vertex="1" parent="1">
          <mxGeometry x="170" y="440" width="130" height="100" as="geometry" />
        </mxCell>
        <mxCell id="aB4UZuVEqjASn_y-79hj-7" value="Là số nguyên tố" style="strokeWidth=2;html=1;shape=mxgraph.flowchart.display;whiteSpace=wrap;" vertex="1" parent="1">
          <mxGeometry x="20" y="460" width="110" height="60" as="geometry" />
        </mxCell>
        <mxCell id="aB4UZuVEqjASn_y-79hj-20" style="edgeStyle=orthogonalEdgeStyle;rounded=0;orthogonalLoop=1;jettySize=auto;html=1;entryX=0.5;entryY=1;entryDx=0;entryDy=0;" edge="1" parent="1" source="aB4UZuVEqjASn_y-79hj-8" target="aB4UZuVEqjASn_y-79hj-9">
          <mxGeometry relative="1" as="geometry" />
        </mxCell>
        <mxCell id="aB4UZuVEqjASn_y-79hj-8" value="N mod i = 0" style="strokeWidth=2;html=1;shape=mxgraph.flowchart.decision;whiteSpace=wrap;" vertex="1" parent="1">
          <mxGeometry x="370" y="440" width="130" height="100" as="geometry" />
        </mxCell>
        <mxCell id="aB4UZuVEqjASn_y-79hj-9" value="i = i + 1" style="rounded=1;whiteSpace=wrap;html=1;absoluteArcSize=1;arcSize=14;strokeWidth=2;" vertex="1" parent="1">
          <mxGeometry x="387.5" y="380" width="95" height="40" as="geometry" />
        </mxCell>
        <mxCell id="aB4UZuVEqjASn_y-79hj-10" value="Không phải số nguyên tố" style="strokeWidth=2;html=1;shape=mxgraph.flowchart.display;whiteSpace=wrap;" vertex="1" parent="1">
          <mxGeometry x="360" y="585" width="150" height="60" as="geometry" />
        </mxCell>
        <mxCell id="aB4UZuVEqjASn_y-79hj-11" value="Không phải số nguyên tố" style="strokeWidth=2;html=1;shape=mxgraph.flowchart.display;whiteSpace=wrap;" vertex="1" parent="1">
          <mxGeometry x="410" y="220" width="150" height="60" as="geometry" />
        </mxCell>
        <mxCell id="aB4UZuVEqjASn_y-79hj-12" value="End." style="strokeWidth=2;html=1;shape=mxgraph.flowchart.start_1;whiteSpace=wrap;" vertex="1" parent="1">
          <mxGeometry x="620" y="645" width="100" height="60" as="geometry" />
        </mxCell>
        <mxCell id="aB4UZuVEqjASn_y-79hj-16" style="edgeStyle=orthogonalEdgeStyle;rounded=0;orthogonalLoop=1;jettySize=auto;html=1;entryX=0.5;entryY=0;entryDx=0;entryDy=0;entryPerimeter=0;" edge="1" parent="1" source="aB4UZuVEqjASn_y-79hj-5" target="aB4UZuVEqjASn_y-79hj-6">
          <mxGeometry relative="1" as="geometry" />
        </mxCell>
        <mxCell id="aB4UZuVEqjASn_y-79hj-17" style="edgeStyle=orthogonalEdgeStyle;rounded=0;orthogonalLoop=1;jettySize=auto;html=1;entryX=1;entryY=0.5;entryDx=0;entryDy=0;entryPerimeter=0;" edge="1" parent="1" source="aB4UZuVEqjASn_y-79hj-6" target="aB4UZuVEqjASn_y-79hj-7">
          <mxGeometry relative="1" as="geometry" />
        </mxCell>
        <mxCell id="aB4UZuVEqjASn_y-79hj-18" style="edgeStyle=orthogonalEdgeStyle;rounded=0;orthogonalLoop=1;jettySize=auto;html=1;entryX=0;entryY=0.5;entryDx=0;entryDy=0;entryPerimeter=0;" edge="1" parent="1" source="aB4UZuVEqjASn_y-79hj-6" target="aB4UZuVEqjASn_y-79hj-8">
          <mxGeometry relative="1" as="geometry" />
        </mxCell>
        <mxCell id="aB4UZuVEqjASn_y-79hj-22" style="edgeStyle=orthogonalEdgeStyle;rounded=0;orthogonalLoop=1;jettySize=auto;html=1;entryX=0.5;entryY=0;entryDx=0;entryDy=0;entryPerimeter=0;" edge="1" parent="1" source="aB4UZuVEqjASn_y-79hj-9" target="aB4UZuVEqjASn_y-79hj-6">
          <mxGeometry relative="1" as="geometry">
            <Array as="points">
              <mxPoint x="235" y="410" />
            </Array>
          </mxGeometry>
        </mxCell>
        <mxCell id="aB4UZuVEqjASn_y-79hj-23" style="edgeStyle=orthogonalEdgeStyle;rounded=0;orthogonalLoop=1;jettySize=auto;html=1;entryX=0.5;entryY=0;entryDx=0;entryDy=0;entryPerimeter=0;" edge="1" parent="1" source="aB4UZuVEqjASn_y-79hj-8" target="aB4UZuVEqjASn_y-79hj-10">
          <mxGeometry relative="1" as="geometry" />
        </mxCell>
        <mxCell id="aB4UZuVEqjASn_y-79hj-24" style="edgeStyle=orthogonalEdgeStyle;rounded=0;orthogonalLoop=1;jettySize=auto;html=1;entryX=0;entryY=0.5;entryDx=0;entryDy=0;entryPerimeter=0;" edge="1" parent="1" source="aB4UZuVEqjASn_y-79hj-3" target="aB4UZuVEqjASn_y-79hj-11">
          <mxGeometry relative="1" as="geometry" />
        </mxCell>
        <mxCell id="aB4UZuVEqjASn_y-79hj-25" style="edgeStyle=orthogonalEdgeStyle;rounded=0;orthogonalLoop=1;jettySize=auto;html=1;entryX=0.5;entryY=0;entryDx=0;entryDy=0;entryPerimeter=0;" edge="1" parent="1" source="aB4UZuVEqjASn_y-79hj-11" target="aB4UZuVEqjASn_y-79hj-12">
          <mxGeometry relative="1" as="geometry" />
        </mxCell>
        <mxCell id="aB4UZuVEqjASn_y-79hj-26" style="edgeStyle=orthogonalEdgeStyle;rounded=0;orthogonalLoop=1;jettySize=auto;html=1;entryX=0.5;entryY=0;entryDx=0;entryDy=0;entryPerimeter=0;" edge="1" parent="1" source="aB4UZuVEqjASn_y-79hj-10" target="aB4UZuVEqjASn_y-79hj-12">
          <mxGeometry relative="1" as="geometry" />
        </mxCell>
        <mxCell id="aB4UZuVEqjASn_y-79hj-27" style="edgeStyle=orthogonalEdgeStyle;rounded=0;orthogonalLoop=1;jettySize=auto;html=1;entryX=-0.004;entryY=0.64;entryDx=0;entryDy=0;entryPerimeter=0;" edge="1" parent="1" source="aB4UZuVEqjASn_y-79hj-7" target="aB4UZuVEqjASn_y-79hj-12">
          <mxGeometry relative="1" as="geometry">
            <Array as="points">
              <mxPoint x="70" y="683" />
            </Array>
          </mxGeometry>
        </mxCell>
        <mxCell id="aB4UZuVEqjASn_y-79hj-28" value="True" style="text;html=1;align=center;verticalAlign=middle;resizable=0;points=[];autosize=1;strokeColor=none;fillColor=none;" vertex="1" parent="1">
          <mxGeometry x="320" y="220" width="50" height="30" as="geometry" />
        </mxCell>
        <mxCell id="aB4UZuVEqjASn_y-79hj-29" value="False" style="text;html=1;align=center;verticalAlign=middle;resizable=0;points=[];autosize=1;strokeColor=none;fillColor=none;" vertex="1" parent="1">
          <mxGeometry x="235" y="300" width="50" height="30" as="geometry" />
        </mxCell>
        <mxCell id="aB4UZuVEqjASn_y-79hj-30" value="True" style="text;html=1;align=center;verticalAlign=middle;resizable=0;points=[];autosize=1;strokeColor=none;fillColor=none;" vertex="1" parent="1">
          <mxGeometry x="130" y="460" width="50" height="30" as="geometry" />
        </mxCell>
        <mxCell id="aB4UZuVEqjASn_y-79hj-31" value="False" style="text;html=1;align=center;verticalAlign=middle;resizable=0;points=[];autosize=1;strokeColor=none;fillColor=none;" vertex="1" parent="1">
          <mxGeometry x="310" y="460" width="50" height="30" as="geometry" />
        </mxCell>
        <mxCell id="aB4UZuVEqjASn_y-79hj-32" value="True" style="text;html=1;align=center;verticalAlign=middle;resizable=0;points=[];autosize=1;strokeColor=none;fillColor=none;" vertex="1" parent="1">
          <mxGeometry x="430" y="540" width="50" height="30" as="geometry" />
        </mxCell>
        <mxCell id="aB4UZuVEqjASn_y-79hj-33" value="False" style="text;html=1;align=center;verticalAlign=middle;resizable=0;points=[];autosize=1;strokeColor=none;fillColor=none;" vertex="1" parent="1">
          <mxGeometry x="435" y="418" width="50" height="30" as="geometry" />
        </mxCell>
      </root>
    </mxGraphModel>
  </diagram>
</mxfile>
